PathFileType	4	(X/Y/Z)	2425~aa~Standing.trc
DataRate	CameraRate	NumFrames	NumMarkers	Units	OrigDataRate	OrigDataStartFrame	OrigNumFrames
100.0	100.0	6	61	m	100.0	265	707
Frame#	Time	r_asis			l_asis			r_bar_1			l_bar_1			RATT			LATT			SCR1			SCR2			r_bar_2			SCL1			SCL2			l_bar_2			MIDASIS			PO			RFCG			LFCG			RCCG			LCCG			RA_rel			LA_rel			SHO			LTCG			LK_rel			RTCG			RK_rel			refRMALL			refLMALL			RATTrel			SCR1rel			SCR2rel			rbar2rel			refRA			refLA			LATTrel			SCL1rel			SCL2rel			lbar2rel			N			RASI			LASI			RAC			LAC			HIPL			HIPR			RKNE			LKNE			RANK			LANK			KNER			KNEL			RTIO			LTIO			RHEE			LHEE			RTOE			LTOE			SAC			RMMv			LMMv			RMFC			LMFC
		X1	Y1	Z1	X2	Y2	Z2	X3	Y3	Z3	X4	Y4	Z4	X5	Y5	Z5	X6	Y6	Z6	X7	Y7	Z7	X8	Y8	Z8	X9	Y9	Z9	X10	Y10	Z10	X11	Y11	Z11	X12	Y12	Z12	X13	Y13	Z13	X14	Y14	Z14	X15	Y15	Z15	X16	Y16	Z16	X17	Y17	Z17	X18	Y18	Z18	X19	Y19	Z19	X20	Y20	Z20	X21	Y21	Z21	X22	Y22	Z22	X23	Y23	Z23	X24	Y24	Z24	X25	Y25	Z25	X26	Y26	Z26	X27	Y27	Z27	X28	Y28	Z28	X29	Y29	Z29	X30	Y30	Z30	X31	Y31	Z31	X32	Y32	Z32	X33	Y33	Z33	X34	Y34	Z34	X35	Y35	Z35	X36	Y36	Z36	X37	Y37	Z37	X38	Y38	Z38	X39	Y39	Z39	X40	Y40	Z40	X41	Y41	Z41	X42	Y42	Z42	X43	Y43	Z43	X44	Y44	Z44	X45	Y45	Z45	X46	Y46	Z46	X47	Y47	Z47	X48	Y48	Z48	X49	Y49	Z49	X50	Y50	Z50	X51	Y51	Z51	X52	Y52	Z52	X53	Y53	Z53	X54	Y54	Z54	X55	Y55	Z55	X56	Y56	Z56	X57	Y57	Z57	X58	Y58	Z58	X59	Y59	Z59	X60	Y60	Z60	X61	Y61	Z61	
265	2.65	0.3408	0.8858	0.5628	0.3001	0.8966	0.3654	0.2591	0.4510	0.6208	0.2481	0.4795	0.3105	0.2416	0.3881	0.6268	0.2248	0.3930	0.2958	0.2151	0.2050	0.7051	0.2431	0.1531	0.6857	0.2708	0.1562	0.7291	0.1807	0.2137	0.2247	0.1996	0.1523	0.2372	0.2262	0.1580	0.1934	0.3205	0.8912	0.4641	0.3205	0.8912	0.4641	0.2401	0.0369	0.6665	0.1900	0.0427	0.2609	0.2038	0.2960	0.6264	0.1803	0.2991	0.3019	0.0160	-0.0054	0.0383	0.0094	-0.0002	-0.0374	0.3074	1.2902	0.4788	0.2099	0.6568	0.3771	0.0076	0.0264	-0.0466	0.2255	0.6533	0.5681	0.0130	0.0341	0.0449	-0.0524	-0.0153	-0.0870	-0.0501	-0.0256	0.0755	0.1787	-0.0490	0.1561	0.0621	0.0000	0.0000	0.0000	0.0000	0.0000	0.0037	0.0515	0.0000	-0.0657	-0.0356	-0.0530	-0.0643	-0.0388	0.0422	0.2075	-0.0348	-0.1334	0.0654	0.0000	0.0000	0.0000	0.0000	0.0000	0.0061	0.0512	0.0000	0.1940	1.3353	0.4757	0.3411	0.8858	0.5644	0.2998	0.8967	0.3639	0.3063	1.2912	0.5310	0.3086	1.2891	0.4265	0.2251	0.8293	0.4160	0.2505	0.8226	0.5392	0.1841	0.4571	0.6591	0.1829	0.4624	0.2785	0.1982	0.0615	0.6982	0.1408	0.0791	0.2289	0.1955	0.4505	0.6028	0.1916	0.4501	0.3305	0.2160	0.0691	0.6612	0.1637	0.0774	0.2599	0.1626	0.0360	0.6397	0.1126	0.0478	0.2659	0.3380	0.0380	0.7003	0.2876	0.0363	0.2545	0.1730	0.9566	0.4890	0.2339	0.0766	0.6241	0.1866	0.0756	0.2909	0.2069	0.4438	0.5464	0.2002	0.4378	0.3825
266	2.66	0.3406	0.8858	0.5628	0.3000	0.8966	0.3654	0.2591	0.4511	0.6208	0.2480	0.4795	0.3105	0.2416	0.3881	0.6268	0.2247	0.3930	0.2958	0.2150	0.2050	0.7051	0.2430	0.1531	0.6856	0.2707	0.1563	0.7291	0.1807	0.2136	0.2247	0.1996	0.1523	0.2372	0.2261	0.1580	0.1934	0.3203	0.8912	0.4641	0.3203	0.8912	0.4641	0.2401	0.0369	0.6665	0.1899	0.0428	0.2608	0.2038	0.2960	0.6264	0.1802	0.2991	0.3019	0.0160	-0.0054	0.0382	0.0094	-0.0002	-0.0374	0.3073	1.2901	0.4788	0.2098	0.6568	0.3771	0.0076	0.0265	-0.0466	0.2254	0.6533	0.5681	0.0130	0.0342	0.0449	-0.0523	-0.0153	-0.0871	-0.0500	-0.0256	0.0755	0.1786	-0.0491	0.1561	0.0621	0.0000	0.0000	0.0000	0.0000	0.0000	0.0037	0.0515	0.0000	-0.0657	-0.0355	-0.0531	-0.0642	-0.0388	0.0421	0.2075	-0.0348	-0.1333	0.0654	0.0000	0.0000	0.0000	0.0000	0.0000	0.0061	0.0512	0.0000	0.1939	1.3354	0.4756	0.3409	0.8857	0.5644	0.2997	0.8966	0.3639	0.3062	1.2912	0.5311	0.3085	1.2890	0.4266	0.2250	0.8293	0.4160	0.2503	0.8226	0.5392	0.1840	0.4572	0.6591	0.1829	0.4624	0.2785	0.1982	0.0616	0.6982	0.1408	0.0792	0.2289	0.1955	0.4505	0.6028	0.1915	0.4501	0.3305	0.2160	0.0691	0.6612	0.1637	0.0774	0.2599	0.1626	0.0360	0.6396	0.1126	0.0479	0.2658	0.3380	0.0381	0.7003	0.2876	0.0363	0.2545	0.1729	0.9567	0.4889	0.2339	0.0765	0.6241	0.1866	0.0756	0.2909	0.2069	0.4437	0.5464	0.2001	0.4378	0.3825
267	2.67	0.3405	0.8858	0.5628	0.3000	0.8966	0.3654	0.2590	0.4511	0.6208	0.2480	0.4794	0.3105	0.2416	0.3881	0.6268	0.2247	0.3930	0.2958	0.2149	0.2050	0.7050	0.2430	0.1532	0.6856	0.2706	0.1563	0.7291	0.1807	0.2136	0.2247	0.1996	0.1522	0.2372	0.2262	0.1580	0.1934	0.3202	0.8912	0.4641	0.3202	0.8912	0.4641	0.2402	0.0368	0.6663	0.1899	0.0428	0.2608	0.2038	0.2960	0.6264	0.1802	0.2992	0.3019	0.0160	-0.0054	0.0382	0.0094	-0.0001	-0.0374	0.3073	1.2901	0.4788	0.2097	0.6568	0.3770	0.0076	0.0264	-0.0466	0.2253	0.6533	0.5681	0.0129	0.0342	0.0449	-0.0523	-0.0152	-0.0871	-0.0500	-0.0255	0.0755	0.1785	-0.0491	0.1562	0.0621	0.0000	0.0000	0.0000	0.0000	0.0000	0.0037	0.0515	0.0000	-0.0657	-0.0355	-0.0531	-0.0642	-0.0387	0.0422	0.2075	-0.0348	-0.1333	0.0654	0.0000	0.0000	0.0000	0.0000	0.0000	0.0061	0.0512	0.0000	0.1939	1.3354	0.4756	0.3408	0.8857	0.5644	0.2997	0.8966	0.3639	0.3061	1.2912	0.5310	0.3085	1.2890	0.4266	0.2249	0.8294	0.4159	0.2502	0.8226	0.5391	0.1839	0.4572	0.6590	0.1829	0.4624	0.2785	0.1982	0.0616	0.6982	0.1408	0.0792	0.2288	0.1954	0.4505	0.6027	0.1914	0.4501	0.3305	0.2161	0.0691	0.6612	0.1637	0.0774	0.2598	0.1627	0.0358	0.6394	0.1125	0.0479	0.2658	0.3379	0.0381	0.7003	0.2876	0.0363	0.2545	0.1727	0.9567	0.4888	0.2339	0.0765	0.6242	0.1866	0.0757	0.2909	0.2069	0.4437	0.5464	0.2000	0.4378	0.3825
268	2.68	0.3404	0.8858	0.5628	0.2999	0.8966	0.3654	0.2589	0.4512	0.6208	0.2480	0.4795	0.3105	0.2415	0.3882	0.6268	0.2247	0.3930	0.2958	0.2149	0.2051	0.7050	0.2430	0.1532	0.6856	0.2706	0.1563	0.7291	0.1807	0.2136	0.2247	0.1996	0.1523	0.2372	0.2261	0.1580	0.1934	0.3202	0.8912	0.4641	0.3202	0.8912	0.4641	0.2402	0.0368	0.6663	0.1899	0.0428	0.2608	0.2038	0.2960	0.6264	0.1802	0.2992	0.3019	0.0160	-0.0054	0.0382	0.0094	-0.0002	-0.0374	0.3072	1.2901	0.4788	0.2096	0.6568	0.3770	0.0076	0.0264	-0.0466	0.2252	0.6533	0.5680	0.0129	0.0341	0.0449	-0.0523	-0.0152	-0.0871	-0.0500	-0.0255	0.0755	0.1785	-0.0492	0.1562	0.0621	0.0000	0.0000	0.0000	0.0000	0.0000	0.0037	0.0515	0.0000	-0.0657	-0.0355	-0.0532	-0.0642	-0.0387	0.0421	0.2075	-0.0348	-0.1334	0.0654	0.0000	0.0000	0.0000	0.0000	0.0000	0.0061	0.0512	0.0000	0.1939	1.3354	0.4756	0.3407	0.8858	0.5644	0.2996	0.8966	0.3638	0.3060	1.2912	0.5311	0.3085	1.2890	0.4266	0.2248	0.8294	0.4159	0.2501	0.8227	0.5391	0.1839	0.4572	0.6590	0.1828	0.4624	0.2784	0.1982	0.0616	0.6982	0.1408	0.0792	0.2288	0.1954	0.4505	0.6027	0.1914	0.4501	0.3305	0.2161	0.0691	0.6612	0.1637	0.0774	0.2598	0.1628	0.0358	0.6393	0.1126	0.0479	0.2658	0.3379	0.0381	0.7003	0.2876	0.0364	0.2545	0.1726	0.9568	0.4887	0.2339	0.0766	0.6242	0.1866	0.0757	0.2909	0.2069	0.4437	0.5464	0.1999	0.4378	0.3825
269	2.69	0.3403	0.8859	0.5628	0.2998	0.8966	0.3654	0.2589	0.4513	0.6209	0.2479	0.4795	0.3105	0.2415	0.3882	0.6268	0.2246	0.3931	0.2958	0.2149	0.2051	0.7050	0.2430	0.1532	0.6856	0.2705	0.1564	0.7292	0.1807	0.2137	0.2247	0.1995	0.1523	0.2372	0.2261	0.1580	0.1934	0.3200	0.8912	0.4641	0.3200	0.8912	0.4641	0.2402	0.0369	0.6663	0.1899	0.0428	0.2608	0.2037	0.2960	0.6264	0.1801	0.2992	0.3019	0.0160	-0.0055	0.0382	0.0094	-0.0002	-0.0374	0.3072	1.2901	0.4789	0.2095	0.6568	0.3770	0.0077	0.0265	-0.0466	0.2251	0.6533	0.5680	0.0130	0.0341	0.0449	-0.0523	-0.0151	-0.0871	-0.0501	-0.0255	0.0754	0.1785	-0.0492	0.1562	0.0621	0.0000	0.0000	0.0000	0.0000	0.0000	0.0037	0.0515	0.0000	-0.0657	-0.0354	-0.0532	-0.0642	-0.0387	0.0420	0.2075	-0.0349	-0.1333	0.0654	0.0000	0.0000	0.0000	0.0000	0.0000	0.0061	0.0512	0.0000	0.1939	1.3354	0.4756	0.3406	0.8858	0.5644	0.2995	0.8967	0.3638	0.3059	1.2912	0.5311	0.3084	1.2890	0.4266	0.2247	0.8294	0.4159	0.2500	0.8227	0.5391	0.1838	0.4572	0.6590	0.1827	0.4624	0.2784	0.1982	0.0616	0.6982	0.1409	0.0792	0.2288	0.1953	0.4505	0.6027	0.1913	0.4501	0.3304	0.2160	0.0691	0.6612	0.1637	0.0775	0.2599	0.1628	0.0358	0.6393	0.1126	0.0479	0.2658	0.3379	0.0382	0.7004	0.2876	0.0364	0.2545	0.1726	0.9567	0.4887	0.2339	0.0767	0.6241	0.1866	0.0757	0.2909	0.2068	0.4438	0.5463	0.1999	0.4379	0.3825
270	2.70	0.3401	0.8859	0.5629	0.2998	0.8966	0.3654	0.2588	0.4513	0.6209	0.2479	0.4795	0.3105	0.2414	0.3882	0.6268	0.2246	0.3931	0.2958	0.2148	0.2051	0.7050	0.2429	0.1533	0.6856	0.2705	0.1564	0.7292	0.1807	0.2137	0.2247	0.1995	0.1523	0.2372	0.2261	0.1580	0.1934	0.3200	0.8913	0.4641	0.3200	0.8913	0.4641	0.2401	0.0369	0.6664	0.1899	0.0428	0.2608	0.2037	0.2961	0.6263	0.1801	0.2992	0.3018	0.0160	-0.0054	0.0382	0.0094	-0.0002	-0.0374	0.3071	1.2901	0.4789	0.2095	0.6568	0.3770	0.0076	0.0265	-0.0466	0.2250	0.6534	0.5680	0.0130	0.0341	0.0449	-0.0523	-0.0151	-0.0871	-0.0500	-0.0255	0.0755	0.1785	-0.0492	0.1562	0.0621	0.0000	0.0000	0.0000	0.0000	0.0000	0.0038	0.0515	0.0000	-0.0656	-0.0354	-0.0532	-0.0642	-0.0387	0.0421	0.2075	-0.0349	-0.1333	0.0654	0.0000	0.0000	0.0000	0.0000	0.0000	0.0061	0.0512	0.0000	0.1939	1.3354	0.4756	0.3405	0.8858	0.5644	0.2995	0.8967	0.3638	0.3058	1.2912	0.5311	0.3084	1.2890	0.4267	0.2247	0.8294	0.4159	0.2499	0.8227	0.5391	0.1837	0.4572	0.6589	0.1827	0.4624	0.2784	0.1982	0.0616	0.6982	0.1408	0.0792	0.2288	0.1953	0.4505	0.6026	0.1913	0.4501	0.3304	0.2160	0.0692	0.6612	0.1637	0.0775	0.2598	0.1627	0.0359	0.6394	0.1125	0.0479	0.2658	0.3379	0.0382	0.7004	0.2876	0.0364	0.2545	0.1725	0.9568	0.4887	0.2339	0.0767	0.6242	0.1866	0.0757	0.2909	0.2068	0.4438	0.5463	0.1998	0.4379	0.3825
